<svg width="167" height="24" viewBox="0 0 167 24" fill="none" xmlns="http://www.w3.org/2000/svg">
<path d="M0 21.4917C3.93158 21.4917 7.11873 18.3045 7.11873 14.3729C7.11873 10.4413 3.93158 7.25418 0 7.25418V12.2373C1.17946 12.2373 2.13561 13.1934 2.13561 14.3729C2.13561 15.5524 1.17946 16.5085 0 16.5085V21.4917Z" fill="#F57463"/>
<path d="M23.7291 9.62715C22.5126 9.24179 21.2172 9.03387 19.8731 9.03387C12.829 9.03387 7.11874 14.7443 7.11874 21.7883C7.11874 22.4953 7.17628 23.1889 7.28689 23.8646H15.2116C14.9287 23.2304 14.7714 22.5277 14.7714 21.7883C14.7714 18.9707 17.0555 16.6865 19.8731 16.6865C21.4131 16.6865 22.7937 17.3688 23.7291 18.4476V9.62715Z" fill="#F57463"/>
<path d="M1.25156 0.135437C1.84175 5.47443 6.36819 9.62712 11.8645 9.62712C17.3607 9.62712 21.8872 5.47443 22.4774 0.135437H14.841C14.3695 1.31728 13.2145 2.15241 11.8645 2.15241C10.5144 2.15241 9.35947 1.31728 8.88795 0.135437H1.25156Z" fill="#F57463"/>
<path d="M43.579 4.00862C44.557 4.00862 45.3874 4.1399 46.07 4.40246C46.7593 4.65846 47.3894 5.02277 47.9605 5.49538L46.3753 7.40554C46.0011 7.09703 45.5876 6.85415 45.1347 6.67692C44.6817 6.49313 44.1894 6.40123 43.6577 6.40123C43.0867 6.40123 42.5648 6.56533 42.0922 6.89354C41.6196 7.21518 41.2421 7.72718 40.9599 8.42954C40.6776 9.12533 40.5365 10.0312 40.5365 11.1471C40.5365 12.7881 40.8319 13.9828 41.4227 14.7311C42.02 15.4728 42.7847 15.8437 43.7168 15.8437C44.3995 15.8437 44.9673 15.7157 45.4202 15.4597C45.8731 15.2037 46.2899 14.9247 46.6707 14.6228L48.1377 16.4935C47.6257 16.999 46.9956 17.4322 46.2473 17.7932C45.499 18.1543 44.5964 18.3348 43.5396 18.3348C42.3055 18.3348 41.2093 18.0624 40.251 17.5175C39.2992 16.9662 38.5509 16.1588 38.006 15.0954C37.4678 14.0254 37.1987 12.7093 37.1987 11.1471C37.1987 9.6242 37.4776 8.33108 38.0356 7.26769C38.6001 6.20431 39.3648 5.39692 40.3297 4.84554C41.2947 4.28759 42.3777 4.00862 43.579 4.00862ZM54.2493 7.19877C55.3258 7.19877 56.2415 7.42851 56.9964 7.888C57.7513 8.34749 58.3289 8.99405 58.7293 9.82769C59.1297 10.6548 59.3299 11.6263 59.3299 12.7422C59.3299 14.4882 58.8836 15.8568 57.9908 16.848C57.0981 17.8392 55.8509 18.3348 54.2493 18.3348C52.6477 18.3348 51.4005 17.8457 50.5078 16.8677C49.615 15.8896 49.1687 14.521 49.1687 12.7618C49.1687 11.6525 49.3689 10.681 49.7693 9.84738C50.1763 9.01374 50.7572 8.3639 51.5121 7.89785C52.2735 7.4318 53.1859 7.19877 54.2493 7.19877ZM54.2493 9.49292C53.6126 9.49292 53.14 9.75549 52.8315 10.2806C52.5295 10.7992 52.3785 11.6263 52.3785 12.7618C52.3785 13.9171 52.5295 14.7541 52.8315 15.2726C53.14 15.7912 53.6126 16.0505 54.2493 16.0505C54.886 16.0505 55.3554 15.7912 55.6573 15.2726C55.9658 14.7541 56.1201 13.9106 56.1201 12.7422C56.1201 11.6131 55.9658 10.7893 55.6573 10.2708C55.3554 9.75221 54.886 9.49292 54.2493 9.49292ZM67.4797 3.06338L70.591 3.38831V18H67.8341L67.6766 16.848C67.3878 17.255 67.0038 17.6062 66.5246 17.9015C66.0454 18.1904 65.4645 18.3348 64.7818 18.3348C63.9153 18.3348 63.1966 18.1017 62.6255 17.6357C62.061 17.1696 61.6376 16.5198 61.3553 15.6862C61.0797 14.8459 60.9418 13.8646 60.9418 12.7422C60.9418 11.6656 61.1092 10.7106 61.444 9.87692C61.7787 9.04328 62.2579 8.39015 62.8815 7.91754C63.5051 7.43836 64.2468 7.19877 65.1067 7.19877C66.0454 7.19877 66.8364 7.52041 67.4797 8.16369V3.06338ZM65.9437 9.47323C65.4054 9.47323 64.9722 9.72923 64.644 10.2412C64.3158 10.7467 64.1517 11.5869 64.1517 12.7618C64.1517 13.6217 64.2206 14.2913 64.3584 14.7705C64.4963 15.2431 64.6866 15.5746 64.9295 15.7649C65.1724 15.9553 65.4513 16.0505 65.7664 16.0505C66.1143 16.0505 66.4294 15.9422 66.7117 15.7255C67.0005 15.5089 67.2565 15.2135 67.4797 14.8394V10.3298C67.263 10.0607 67.0333 9.85067 66.7904 9.69969C66.5475 9.54872 66.2653 9.47323 65.9437 9.47323ZM77.8546 2.06892C78.3929 2.06892 78.8327 2.23631 79.174 2.57108C79.5153 2.90585 79.686 3.32267 79.686 3.82154C79.686 4.32041 79.5153 4.74051 79.174 5.08185C78.8327 5.41662 78.3929 5.584 77.8546 5.584C77.3098 5.584 76.8634 5.41662 76.5155 5.08185C76.1742 4.74051 76.0035 4.32041 76.0035 3.82154C76.0035 3.32267 76.1742 2.90585 76.5155 2.57108C76.8634 2.23631 77.3098 2.06892 77.8546 2.06892ZM79.7352 7.54338V15.8732H82.3937V18H73.6602V15.8732H76.6238V9.67015H73.7586V7.54338H79.7352ZM85.1576 18V7.54338H87.8751L88.0917 8.75446C88.5578 8.22933 89.0501 7.83877 89.5687 7.58277C90.0872 7.32677 90.678 7.19877 91.341 7.19877C92.2337 7.19877 92.936 7.47118 93.448 8.016C93.96 8.56082 94.216 9.32882 94.216 10.32V18H91.1047V11.216C91.1047 10.5727 91.0324 10.1264 90.888 9.87692C90.7502 9.62092 90.4876 9.49292 90.1003 9.49292C89.7721 9.49292 89.4571 9.59795 89.1551 9.808C88.8597 10.0181 88.5643 10.3102 88.269 10.6843V18H85.1576ZM106.255 5.86954L106.984 8.15385C106.616 8.29826 106.186 8.40328 105.694 8.46892C105.201 8.53456 104.627 8.56738 103.971 8.56738C104.627 8.84964 105.126 9.20082 105.467 9.62092C105.815 10.0345 105.989 10.5793 105.989 11.2554C105.989 11.9315 105.809 12.5354 105.448 13.0671C105.087 13.5922 104.575 14.0057 103.912 14.3077C103.249 14.6096 102.464 14.7606 101.558 14.7606C101.125 14.7606 100.721 14.7212 100.347 14.6425C100.236 14.7015 100.15 14.7869 100.091 14.8985C100.032 15.0101 100.003 15.1249 100.003 15.2431C100.003 15.4072 100.068 15.5549 100.2 15.6862C100.337 15.8174 100.656 15.8831 101.155 15.8831H102.868C103.682 15.8831 104.384 16.0144 104.975 16.2769C105.572 16.5395 106.035 16.8972 106.363 17.3502C106.692 17.8031 106.856 18.3216 106.856 18.9058C106.856 19.9758 106.386 20.8193 105.448 21.4363C104.509 22.0533 103.114 22.3618 101.263 22.3618C99.9239 22.3618 98.8868 22.224 98.1516 21.9483C97.423 21.6792 96.9143 21.2919 96.6255 20.7865C96.3432 20.2876 96.2021 19.6935 96.2021 19.0043H98.959C98.959 19.3063 99.0181 19.5524 99.1362 19.7428C99.2609 19.9397 99.494 20.0841 99.8353 20.176C100.183 20.2679 100.685 20.3138 101.342 20.3138C102.005 20.3138 102.51 20.2613 102.858 20.1563C103.206 20.0513 103.442 19.9069 103.567 19.7231C103.698 19.5458 103.764 19.3456 103.764 19.1225C103.764 18.8139 103.642 18.5645 103.4 18.3742C103.157 18.1838 102.773 18.0886 102.248 18.0886H100.584C99.4546 18.0886 98.6341 17.8818 98.1221 17.4683C97.6101 17.0482 97.3541 16.5592 97.3541 16.0012C97.3541 15.6139 97.4558 15.2464 97.6593 14.8985C97.8694 14.5506 98.1615 14.2585 98.5356 14.0222C97.8661 13.6677 97.3869 13.2509 97.0981 12.7717C96.8093 12.2859 96.6648 11.705 96.6648 11.0289C96.6648 10.2412 96.865 9.56513 97.2655 9.00062C97.6659 8.42954 98.2173 7.98974 98.9196 7.68123C99.6285 7.37272 100.436 7.21846 101.342 7.21846C102.123 7.23159 102.802 7.17908 103.38 7.06092C103.958 6.93621 104.476 6.76882 104.936 6.55877C105.395 6.34215 105.835 6.11241 106.255 5.86954ZM101.421 9.23692C100.928 9.23692 100.538 9.39446 100.249 9.70954C99.96 10.0181 99.8156 10.4447 99.8156 10.9895C99.8156 11.5672 99.9633 12.0103 100.259 12.3188C100.554 12.6273 100.941 12.7815 101.421 12.7815C102.484 12.7815 103.016 12.1711 103.016 10.9502C103.016 9.808 102.484 9.23692 101.421 9.23692ZM126.266 4.00862C127.245 4.00862 128.075 4.1399 128.758 4.40246C129.447 4.65846 130.077 5.02277 130.648 5.49538L129.063 7.40554C128.689 7.09703 128.275 6.85415 127.822 6.67692C127.369 6.49313 126.877 6.40123 126.345 6.40123C125.774 6.40123 125.252 6.56533 124.78 6.89354C124.307 7.21518 123.93 7.72718 123.647 8.42954C123.365 9.12533 123.224 10.0312 123.224 11.1471C123.224 12.7881 123.519 13.9828 124.11 14.7311C124.707 15.4728 125.472 15.8437 126.404 15.8437C127.087 15.8437 127.655 15.7157 128.108 15.4597C128.561 15.2037 128.977 14.9247 129.358 14.6228L130.825 16.4935C130.313 16.999 129.683 17.4322 128.935 17.7932C128.186 18.1543 127.284 18.3348 126.227 18.3348C124.993 18.3348 123.897 18.0624 122.938 17.5175C121.987 16.9662 121.238 16.1588 120.694 15.0954C120.155 14.0254 119.886 12.7093 119.886 11.1471C119.886 9.6242 120.165 8.33108 120.723 7.26769C121.288 6.20431 122.052 5.39692 123.017 4.84554C123.982 4.28759 125.065 4.00862 126.266 4.00862ZM136.937 7.19877C138.013 7.19877 138.929 7.42851 139.684 7.888C140.439 8.34749 141.016 8.99405 141.417 9.82769C141.817 10.6548 142.017 11.6263 142.017 12.7422C142.017 14.4882 141.571 15.8568 140.678 16.848C139.786 17.8392 138.538 18.3348 136.937 18.3348C135.335 18.3348 134.088 17.8457 133.195 16.8677C132.303 15.8896 131.856 14.521 131.856 12.7618C131.856 11.6525 132.056 10.681 132.457 9.84738C132.864 9.01374 133.445 8.3639 134.2 7.89785C134.961 7.4318 135.873 7.19877 136.937 7.19877ZM136.937 9.49292C136.3 9.49292 135.827 9.75549 135.519 10.2806C135.217 10.7992 135.066 11.6263 135.066 12.7618C135.066 13.9171 135.217 14.7541 135.519 15.2726C135.827 15.7912 136.3 16.0505 136.937 16.0505C137.574 16.0505 138.043 15.7912 138.345 15.2726C138.653 14.7541 138.808 13.9106 138.808 12.7422C138.808 11.6131 138.653 10.7893 138.345 10.2708C138.043 9.75221 137.574 9.49292 136.937 9.49292ZM144.22 18V7.54338H146.938L147.154 8.75446C147.62 8.22933 148.113 7.83877 148.631 7.58277C149.15 7.32677 149.74 7.19877 150.403 7.19877C151.296 7.19877 151.999 7.47118 152.511 8.016C153.023 8.56082 153.279 9.32882 153.279 10.32V18H150.167V11.216C150.167 10.5727 150.095 10.1264 149.951 9.87692C149.813 9.62092 149.55 9.49292 149.163 9.49292C148.835 9.49292 148.52 9.59795 148.218 9.808C147.922 10.0181 147.627 10.3102 147.331 10.6843V18H144.22ZM162.689 3.06338C163.45 3.06338 164.123 3.12574 164.707 3.25046C165.291 3.36862 165.813 3.52615 166.273 3.72308L165.416 5.75138C165.055 5.61354 164.684 5.51508 164.303 5.456C163.923 5.39036 163.545 5.35754 163.171 5.35754C162.554 5.35754 162.111 5.46913 161.842 5.69231C161.579 5.91549 161.448 6.28636 161.448 6.80492V8.20308H164.855L164.51 10.3594H161.448V18H158.356V10.3594H156.161V8.20308H158.356V6.68677C158.356 5.99754 158.52 5.38051 158.849 4.83569C159.177 4.29087 159.663 3.86092 160.306 3.54585C160.949 3.22421 161.743 3.06338 162.689 3.06338Z" fill="white"/>
</svg>
